<svg viewBox="0 0 20 20" fill="none" xmlns="http://www.w3.org/2000/svg">
<circle cx="10" cy="10" r="10" fill="#5B11C2"/>
<path d="M13.5547 14H6.41467V12.848C6.41467 12.136 6.58667 11.576 6.93067 11.168C7.27467 10.76 7.87067 10.416 8.71867 10.136L10.7827 9.464C11.1507 9.336 11.4067 9.2 11.5507 9.056C11.6947 8.904 11.7667 8.7 11.7667 8.444C11.7667 8.116 11.6467 7.876 11.4067 7.724C11.1667 7.564 10.7347 7.484 10.1107 7.484C9.39867 7.484 8.89867 7.592 8.61067 7.808C8.33067 8.016 8.19067 8.352 8.19067 8.816V8.972H6.42667V8.816C6.42667 7.96 6.73467 7.252 7.35067 6.692C7.97467 6.124 8.91467 5.84 10.1707 5.84C11.3307 5.84 12.1867 6.076 12.7387 6.548C13.2987 7.02 13.5787 7.66 13.5787 8.468C13.5787 9.148 13.3747 9.688 12.9667 10.088C12.5587 10.488 11.9747 10.792 11.2147 11L9.46267 11.48C9.04667 11.608 8.75067 11.748 8.57467 11.9C8.39867 12.052 8.31067 12.28 8.31067 12.584L10.4107 12.38H13.5547V14Z" fill="white"/>
</svg>