<svg viewBox="0 0 20 20" fill="none" xmlns="http://www.w3.org/2000/svg">
<circle cx="10" cy="10" r="10" fill="#5B11C2"/>
<path d="M10.0906 14.12C8.80261 14.12 7.84261 13.876 7.21061 13.388C6.58661 12.892 6.27461 12.188 6.27461 11.276V11.084H8.18261V11.276C8.18261 11.708 8.29461 12.004 8.51861 12.164C8.75061 12.316 9.24661 12.392 10.0066 12.392C10.7586 12.392 11.2746 12.324 11.5546 12.188C11.8426 12.052 11.9866 11.808 11.9866 11.456C11.9866 10.888 11.6066 10.604 10.8466 10.604H8.53061V9.128H10.6786C11.3506 9.128 11.6866 8.876 11.6866 8.372C11.6866 8.076 11.5666 7.868 11.3266 7.748C11.0946 7.628 10.6466 7.568 9.98261 7.568C9.27861 7.568 8.80261 7.652 8.55461 7.82C8.30661 7.98 8.18261 8.268 8.18261 8.684V8.744H6.27461V8.684C6.27461 7.812 6.59861 7.12 7.24661 6.608C7.90261 6.096 8.86661 5.84 10.1386 5.84C11.2186 5.84 12.0426 6.024 12.6106 6.392C13.1866 6.752 13.4746 7.284 13.4746 7.988C13.4746 8.452 13.3386 8.832 13.0666 9.128C12.7946 9.424 12.3986 9.604 11.8786 9.668V9.8C13.1746 9.984 13.8226 10.632 13.8226 11.744C13.8226 12.512 13.4946 13.1 12.8386 13.508C12.1906 13.916 11.2746 14.12 10.0906 14.12Z" fill="white"/>
</svg>