<svg viewBox="0 0 20 20" fill="none" xmlns="http://www.w3.org/2000/svg">
<circle cx="10" cy="10" r="10" fill="#5B11C2"/>
<path d="M10.0521 14.12C7.49213 14.12 6.21213 13.248 6.21213 11.504V11.396H8.07213V11.504C8.07213 11.856 8.22013 12.108 8.51613 12.26C8.81213 12.404 9.33213 12.476 10.0761 12.476C10.7561 12.476 11.2241 12.388 11.4801 12.212C11.7441 12.028 11.8761 11.716 11.8761 11.276C11.8761 10.828 11.7481 10.516 11.4921 10.34C11.2361 10.156 10.7681 10.064 10.0881 10.064C9.52013 10.064 9.08013 10.104 8.76813 10.184C8.46413 10.264 8.24013 10.408 8.09613 10.616L7.96413 10.604V10.616L6.27213 10.568L6.72813 5.96H13.3521V7.58H8.32413L8.07213 9.68L8.18013 9.692C8.34813 9.412 8.66013 9.168 9.11613 8.96C9.57213 8.744 10.1401 8.636 10.8201 8.636C11.7961 8.636 12.5321 8.864 13.0281 9.32C13.5321 9.768 13.7841 10.412 13.7841 11.252C13.7841 12.148 13.4721 12.852 12.8481 13.364C12.2241 13.868 11.2921 14.12 10.0521 14.12Z" fill="white"/>
</svg>